<?xml version="1.0" standalone="no"?>
<!DOCTYPE svg PUBLIC "-//W3C//DTD SVG 20010904//EN"
 "http://www.w3.org/TR/2001/REC-SVG-20010904/DTD/svg10.dtd">
<svg version="1.0" xmlns="http://www.w3.org/2000/svg"
 width="512.000000pt" height="512.000000pt" viewBox="0 0 512.000000 512.000000"
 preserveAspectRatio="xMidYMid meet">

<g transform="translate(0.000000,512.000000) scale(0.100000,-0.100000)"
fill="#000000" stroke="none">
<path d="M2321 5110 c-868 -84 -1644 -610 -2037 -1382 -139 -273 -221 -536
-266 -853 -20 -140 -17 -504 6 -660 39 -278 121 -541 247 -794 249 -502 647
-900 1150 -1150 815 -406 1779 -350 2539 147 297 194 579 482 771 788 74 116
184 342 234 478 51 138 110 376 131 531 23 157 26 521 6 660 -59 415 -191 769
-410 1099 -92 140 -185 254 -315 385 -399 403 -895 653 -1462 737 -122 18
-466 26 -594 14z m1216 -1285 c67 -20 143 -88 172 -154 l21 -50 -2 -1167 -3
-1167 -130 108 c-71 60 -168 143 -215 184 -102 91 -228 201 -253 220 -15 12
-17 12 -12 0 8 -22 65 -211 65 -215 0 -3 -361 -3 -802 -2 -802 3 -803 3 -843
25 -53 28 -99 78 -124 133 -20 44 -21 61 -21 960 0 600 4 928 10 952 14 48 66
117 109 142 80 46 54 45 1042 46 806 0 942 -2 986 -15z"/>
<path d="M2203 3210 c-73 -19 -130 -45 -194 -87 -29 -19 -46 -45 -82 -121 -80
-174 -131 -371 -143 -559 l-7 -101 45 -44 c80 -77 222 -138 323 -138 36 0 45
5 78 44 20 25 37 48 37 53 0 4 -26 19 -57 32 -54 24 -159 98 -150 107 2 2 48
-14 103 -36 178 -73 238 -85 419 -84 143 1 169 3 248 27 48 15 125 46 170 68
l82 41 -35 -36 c-33 -35 -139 -96 -166 -96 -27 0 -23 -19 14 -64 34 -42 41
-46 82 -46 107 0 243 56 329 136 l55 51 -12 114 c-22 201 -59 344 -139 527
-45 102 -45 103 -112 142 -82 48 -174 79 -257 87 -79 7 -85 -8 -11 -32 64 -21
203 -89 237 -116 l25 -20 -40 17 c-331 138 -631 138 -990 0 -16 -6 -15 -4 5
13 40 33 129 77 215 106 44 15 82 29 84 31 12 11 -93 1 -156 -16z m197 -485
c74 -71 58 -184 -30 -230 -113 -59 -242 71 -183 185 43 83 150 105 213 45z
m469 17 c63 -34 88 -118 56 -185 -48 -98 -191 -101 -241 -5 -65 125 63 255
185 190z"/>
</g>
</svg>
