<?xml version="1.0" standalone="no"?>
<!DOCTYPE svg PUBLIC "-//W3C//DTD SVG 20010904//EN"
 "http://www.w3.org/TR/2001/REC-SVG-20010904/DTD/svg10.dtd">
<svg version="1.0" xmlns="http://www.w3.org/2000/svg"
 width="512.000000pt" height="512.000000pt" viewBox="0 0 512.000000 512.000000"
 preserveAspectRatio="xMidYMid meet">

<g transform="translate(0.000000,512.000000) scale(0.100000,-0.100000)"
fill="#000000" stroke="none">
<path d="M2390 4890 c-365 -28 -724 -143 -1024 -328 -325 -200 -587 -462 -781
-782 -429 -708 -440 -1611 -29 -2330 270 -472 691 -830 1202 -1021 99 -38 315
-99 348 -99 11 0 14 23 14 128 0 70 -4 132 -8 139 -5 8 -58 11 -187 10 -198
-2 -256 8 -365 63 -93 47 -115 72 -181 203 -91 183 -122 228 -206 303 -68 62
-133 136 -133 153 0 12 65 31 101 31 43 -1 137 -39 201 -82 34 -23 67 -60 105
-118 72 -108 172 -209 243 -245 67 -34 152 -42 260 -26 109 17 151 32 159 55
50 142 67 180 96 225 19 29 35 58 35 65 0 9 -22 16 -65 20 -84 9 -242 50 -326
85 -256 107 -441 295 -528 535 -54 151 -66 231 -65 446 0 183 1 200 27 285 33
108 91 233 146 313 l40 59 -20 99 c-10 54 -19 124 -19 154 0 100 44 301 74
339 13 17 107 10 193 -15 78 -22 241 -101 333 -162 l75 -50 140 30 c128 28
160 31 383 35 254 5 319 -1 515 -46 l79 -19 80 50 c187 116 351 181 457 182
61 1 65 0 82 -29 52 -89 72 -387 35 -513 l-19 -64 32 -30 c42 -39 145 -252
171 -352 25 -98 28 -339 6 -486 -39 -255 -171 -507 -328 -625 -121 -91 -324
-173 -538 -217 -58 -12 -106 -22 -108 -24 -2 -1 15 -31 38 -66 78 -125 80
-138 80 -483 0 -179 4 -305 9 -305 5 0 49 14 98 31 723 255 1266 838 1469
1577 124 453 99 982 -67 1413 -271 706 -856 1234 -1573 1419 -148 39 -264 57
-426 70 -147 11 -186 11 -330 0z"/>
</g>
</svg>
