<?xml version="1.0" standalone="no"?>
<!DOCTYPE svg PUBLIC "-//W3C//DTD SVG 20010904//EN"
 "http://www.w3.org/TR/2001/REC-SVG-20010904/DTD/svg10.dtd">
<svg version="1.0" xmlns="http://www.w3.org/2000/svg"
 width="1080.000000pt" height="1145.000000pt" viewBox="0 0 1080.000000 1145.000000"
 preserveAspectRatio="xMidYMid meet">

<g transform="translate(0.000000,1145.000000) scale(0.100000,-0.100000)"
fill="#000000" stroke="none">
<path d="M2467 11437 c-20 -14 -107 -209 -107 -238 0 -23 26 -36 48 -23 15 10
112 216 112 240 0 21 -34 35 -53 21z"/>
<path d="M5072 10960 c-430 -66 -642 -555 -427 -982 63 -125 117 -202 200
-284 178 -176 393 -206 628 -87 l48 24 39 -33 c21 -18 39 -36 39 -39 1 -3 -29
-11 -66 -19 -83 -16 -218 -62 -298 -102 -231 -115 -439 -334 -552 -578 -97
-208 -124 -502 -82 -866 6 -54 12 -160 13 -234 1 -125 -1 -139 -24 -185 -33
-65 -71 -85 -166 -85 -96 0 -223 23 -449 80 -319 82 -384 93 -540 94 -109 1
-153 -3 -200 -17 -96 -30 -169 -74 -237 -144 l-62 -65 -231 -34 c-126 -18
-234 -34 -238 -34 -9 0 -161 310 -184 375 -18 53 -77 138 -116 168 -30 23
-253 175 -997 682 -179 121 -332 224 -341 227 -21 8 -59 -18 -59 -39 0 -8 153
-342 341 -741 188 -399 347 -743 355 -765 17 -47 58 -105 99 -139 17 -13 174
-123 350 -243 176 -120 410 -280 520 -355 335 -229 456 -310 463 -310 4 0 20
7 35 15 26 13 34 13 88 -5 32 -11 84 -20 116 -20 87 0 1322 177 1342 192 9 7
18 16 21 19 4 6 198 -48 209 -57 2 -2 -6 -39 -17 -83 -12 -43 -22 -83 -22 -90
0 -7 29 -11 85 -11 l86 0 -7 -37 c-15 -90 -87 -352 -139 -513 -97 -295 -219
-618 -450 -1185 -69 -170 -191 -470 -270 -665 -420 -1042 -633 -1717 -699
-2220 -24 -188 -24 -190 -4 -190 10 0 18 -4 18 -10 0 -5 12 -16 28 -24 19 -11
22 -15 10 -16 -10 0 -18 -2 -18 -4 0 -2 27 -65 60 -141 55 -125 59 -140 46
-154 -10 -9 -19 -12 -25 -6 -5 6 -37 74 -71 153 l-62 142 -39 0 c-22 0 -39 -2
-39 -5 0 -3 7 -22 15 -42 24 -58 75 -238 75 -267 0 -19 -5 -26 -20 -26 -14 0
-22 10 -30 43 -5 23 -28 99 -51 168 l-40 126 -47 7 c-26 4 -101 9 -168 13
-159 8 -248 -11 -336 -70 -63 -43 -152 -140 -145 -160 2 -6 50 -37 108 -70 57
-32 201 -114 319 -181 118 -67 486 -277 818 -466 352 -200 607 -339 612 -334
5 5 97 193 205 419 108 225 197 411 199 412 1 2 56 -15 121 -37 66 -22 122
-40 125 -40 3 0 16 55 28 123 112 605 261 1148 602 2182 251 761 398 1231 451
1443 7 28 16 52 20 52 3 0 9 -24 13 -52 11 -84 84 -447 127 -632 83 -360 153
-568 240 -721 345 -606 1199 -1159 2438 -1579 215 -73 567 -178 642 -191 l36
-7 44 122 c38 106 45 119 56 103 39 -58 32 -58 112 2 40 31 79 54 85 52 27 -9
13 -37 -40 -78 -108 -84 -99 -63 -74 -166 l23 -90 69 68 c38 38 74 69 79 69 5
0 12 -7 16 -16 4 -11 -20 -41 -77 -99 l-82 -83 12 -121 c20 -207 57 -309 144
-396 44 -43 171 -124 181 -113 3 3 146 410 526 1495 98 282 179 516 179 520 0
4 -159 51 -353 104 -333 90 -352 97 -352 118 0 21 -22 32 -205 106 -878 352
-1533 690 -1776 917 -73 69 -112 126 -154 228 -88 213 -128 465 -175 1100 -53
719 -92 1005 -166 1232 -23 68 -26 59 33 102 16 12 16 21 -11 151 l-28 139 83
79 c177 167 279 354 319 586 22 123 22 1349 0 1472 -57 327 -262 603 -560 752
-49 25 -102 49 -117 52 -33 8 -34 16 -8 73 61 133 63 309 6 474 -41 120 -85
196 -153 266 -122 123 -254 132 -566 37 -259 -79 -318 -89 -487 -89 -118 0
-170 4 -219 18 -115 31 -190 72 -261 140 -107 103 -222 169 -343 195 -68 15
-168 20 -225 11z m-119 -445 c231 -102 553 -106 822 -10 120 42 220 30 282
-37 47 -50 54 -108 22 -192 -41 -110 -150 -197 -266 -212 -32 -4 -53 -12 -53
-19 0 -7 -19 -50 -42 -96 -123 -249 -433 -400 -650 -319 -137 51 -257 178
-356 376 -52 102 -72 170 -79 269 l-6 81 65 38 c36 21 93 62 127 92 34 30 66
54 70 54 5 0 34 -11 64 -25z m2384 -761 c289 -116 500 -356 585 -664 l23 -85
0 -710 0 -710 -23 -85 c-47 -172 -120 -303 -240 -431 -46 -49 -87 -89 -92 -89
-4 0 -22 57 -39 128 -175 701 -435 1334 -722 1757 -121 178 -242 313 -404 448
l-30 25 25 5 c14 3 66 12 117 21 171 30 336 97 481 193 l85 56 55 -11 c237
-50 470 -278 506 -496 11 -66 14 -71 39 -74 35 -4 44 29 28 106 -42 215 -277
455 -511 523 -25 7 -47 14 -49 15 -6 5 81 104 91 104 5 0 39 -12 75 -26z
m-1254 -285 l56 -21 -49 -92 c-151 -283 -182 -634 -86 -967 l25 -86 -24 -119
c-41 -200 -35 -193 -84 -96 -52 104 -103 254 -132 392 -33 152 -33 449 -1 597
33 151 110 355 155 411 14 17 64 10 140 -19z m-211 13 c42 -17 -185 -259 -298
-319 -128 -68 -269 -82 -360 -35 -42 21 -124 105 -124 126 0 13 100 81 175
119 77 38 221 86 305 102 79 14 273 18 302 7z m389 -1520 c112 -55 315 -152
451 -216 l246 -118 -5 -37 c-87 -640 -244 -921 -618 -1108 -398 -200 -997
-197 -1750 7 -215 59 -252 79 -388 215 -63 63 -127 119 -142 125 -44 17 -98
11 -147 -15 -89 -47 -183 -50 -223 -5 -14 15 -13 23 6 85 33 109 119 183 242
209 19 5 27 13 27 27 0 20 -4 21 -44 17 -55 -7 -120 -38 -172 -82 -47 -40
-100 -134 -110 -193 -7 -44 -20 -53 -78 -53 -41 0 -110 35 -141 72 -23 28 -24
32 -10 48 8 9 15 27 15 41 1 35 32 99 70 143 40 45 103 83 184 111 74 25 83
50 19 49 -62 -1 -182 -63 -231 -120 -50 -56 -82 -122 -89 -185 -5 -43 -9 -49
-34 -54 -43 -10 -98 12 -105 41 -11 42 6 109 47 195 56 115 96 161 175 200 56
28 78 33 162 37 121 6 189 -3 632 -84 541 -99 748 -127 925 -128 114 -1 166 3
215 17 292 79 498 319 625 730 22 70 40 127 41 127 0 0 93 -44 205 -98z
m-1504 -123 c44 -119 73 -268 80 -420 6 -117 5 -129 -11 -129 -31 0 -327 50
-597 100 -343 65 -452 80 -574 80 -217 0 -335 -69 -425 -250 -47 -94 -70 -166
-70 -222 0 -26 -4 -48 -9 -48 -29 0 -74 26 -86 51 -17 31 -20 90 -6 105 5 5
14 27 21 49 19 62 65 127 115 165 49 37 52 42 30 60 -11 9 -20 8 -43 -8 -74
-54 -152 -167 -152 -223 0 -42 -99 -48 -121 -7 -27 50 52 219 146 313 75 75
151 113 269 133 82 14 103 13 221 -1 79 -10 225 -40 370 -77 296 -75 381 -90
504 -90 112 0 159 17 208 73 49 56 58 101 57 280 0 154 0 158 20 155 16 -2 28
-23 53 -89z m-3061 -88 c46 -28 94 -129 94 -198 0 -70 -12 -93 -50 -93 -85 0
-177 212 -124 288 19 27 39 28 80 3z m5504 -285 c52 -1 122 1 155 4 l59 5 24
-84 c19 -66 21 -85 11 -92 -32 -19 -445 -26 -464 -7 -3 3 2 46 11 96 l16 91
47 -6 c25 -4 89 -7 141 -7z m-4686 -248 c40 -62 387 -803 384 -822 -2 -15 -10
-21 -28 -21 -22 0 -31 13 -72 95 -117 238 -348 724 -348 735 0 15 21 35 37 35
7 0 19 -10 27 -22z m477 -294 c80 -60 100 -80 97 -97 -6 -44 -44 -33 -144 42
-71 54 -94 77 -94 95 0 56 24 49 141 -40z m325 -265 c51 -39 95 -76 97 -82 7
-18 -12 -47 -30 -47 -19 0 -203 138 -210 157 -7 17 15 43 35 43 9 0 57 -32
108 -71z m-213 -25 c78 -60 98 -80 95 -97 -6 -44 -43 -32 -143 44 -69 52 -95
78 -95 94 0 55 29 47 143 -41z m4446 -182 c66 -219 103 -497 146 -1072 42
-574 64 -766 112 -980 52 -235 123 -388 229 -492 241 -236 866 -565 1764 -929
119 -49 194 -84 192 -92 -1 -6 -28 -80 -58 -164 l-56 -151 -61 23 c-275 104
-502 204 -772 340 -583 295 -885 495 -1151 760 -359 358 -480 665 -503 1275
-5 118 -6 292 -4 385 6 201 -11 579 -32 720 -8 55 -29 156 -46 223 -17 68 -29
125 -27 126 2 1 46 19 99 40 53 21 102 42 110 47 28 18 39 8 58 -59z m-321
-124 c37 -128 63 -282 77 -458 3 -41 8 -289 10 -550 3 -483 12 -615 51 -815
111 -572 490 -997 1289 -1445 329 -185 722 -372 1035 -493 85 -32 157 -61 159
-63 4 -4 -349 -975 -359 -987 -3 -4 -92 18 -196 48 -885 260 -1684 630 -2198
1018 -319 240 -550 506 -670 770 -85 186 -201 649 -296 1182 -43 244 -51 342
-66 812 -4 127 -10 236 -13 240 -10 15 -308 96 -326 89 -22 -8 -30 -35 -14
-51 8 -7 73 -30 145 -50 l130 -37 13 -366 13 -367 -27 -105 c-79 -311 -196
-690 -450 -1460 -367 -1114 -505 -1609 -635 -2283 -6 -31 -15 -56 -18 -53 -4
2 -351 117 -772 256 -421 138 -769 256 -774 260 -17 16 40 354 100 595 117
469 296 978 659 1875 97 239 232 572 300 740 283 700 429 1132 512 1513 l8 37
395 4 c496 6 783 23 1145 67 253 31 546 86 680 128 33 11 63 20 66 20 3 1 16
-32 27 -71z"/>
<path d="M5905 10430 c-52 -8 -92 -30 -132 -72 -35 -36 -67 -103 -58 -118 9
-15 45 -12 45 3 0 26 54 96 90 116 20 11 55 23 78 27 31 5 42 11 42 24 0 23
-15 28 -65 20z"/>
<path d="M5066 10244 c-19 -18 -20 -28 -6 -55 21 -39 90 -16 90 30 0 16 -30
41 -50 41 -10 0 -26 -7 -34 -16z"/>
<path d="M4837 10213 c-12 -12 -7 -80 12 -180 21 -108 34 -147 51 -158 28 -17
32 14 11 96 -12 46 -24 116 -28 154 -7 80 -23 112 -46 88z"/>
<path d="M23 10393 c-7 -2 -13 -15 -13 -28 0 -30 331 -350 362 -350 30 0 46
29 28 50 -30 36 -349 335 -357 334 -4 0 -14 -3 -20 -6z"/>
<path d="M1915 10043 c-77 -31 -141 -57 -142 -58 -3 -2 107 -278 113 -284 8
-8 284 105 284 116 0 15 -99 265 -108 275 -4 3 -70 -19 -147 -49z"/>
<path d="M4010 9937 c-239 -60 -245 -63 -248 -88 -2 -17 3 -29 13 -33 15 -5
341 69 483 110 49 14 53 17 50 42 -2 21 -9 27 -28 29 -14 1 -135 -26 -270 -60z"/>
<path d="M4195 9705 c-191 -113 -216 -135 -182 -164 9 -6 22 -8 34 -4 51 21
375 218 383 234 11 19 -11 50 -33 48 -7 -1 -97 -52 -202 -114z"/>
<path d="M2411 9309 c-56 -100 -63 -134 -31 -142 27 -7 45 14 99 116 47 89 49
117 7 117 -20 0 -33 -15 -75 -91z"/>
<path d="M2784 9385 c-4 -8 -1 -35 5 -60 26 -101 5 -210 -54 -288 -55 -72
-140 -120 -304 -173 -314 -101 -422 -168 -489 -304 -25 -51 -27 -64 -26 -170
1 -131 17 -193 50 -198 38 -5 46 19 29 89 -33 140 -13 237 67 324 63 70 151
113 373 185 182 59 249 93 321 165 76 76 107 148 112 259 4 119 -12 180 -51
184 -18 2 -29 -2 -33 -13z"/>
<path d="M3085 9156 c-17 -12 -17 -18 -5 -75 27 -127 -7 -238 -98 -323 -65
-61 -107 -81 -297 -143 -189 -62 -274 -101 -352 -164 -111 -90 -153 -224 -123
-399 15 -92 40 -121 73 -87 13 12 13 23 0 82 -21 100 -13 197 23 262 56 104
127 146 393 235 105 35 216 79 247 97 167 100 243 267 204 452 -13 64 -35 85
-65 63z"/>
<path d="M1590 9137 c-65 -18 -136 -71 -175 -130 -111 -169 -49 -390 134 -476
46 -21 70 -26 136 -26 102 1 165 27 233 99 62 65 87 129 87 221 0 45 -7 88
-19 120 -26 67 -103 147 -169 175 -63 27 -164 35 -227 17z m206 -85 c93 -47
153 -157 140 -255 -8 -60 -28 -101 -70 -145 -52 -56 -101 -76 -181 -76 -80 0
-129 20 -181 76 -53 55 -68 95 -68 173 0 118 67 208 184 246 40 13 133 3 176
-19z"/>
<path d="M8797 774 c-15 -15 -4 -46 117 -334 110 -262 126 -295 146 -295 52 0
47 20 -83 330 -111 267 -128 300 -149 303 -13 2 -27 0 -31 -4z"/>
<path d="M8584 416 c-10 -8 -15 -21 -12 -33 6 -21 245 -383 254 -383 17 0 44
23 44 38 0 20 -237 379 -255 386 -7 2 -21 -1 -31 -8z"/>
</g>
</svg>
