<?xml version="1.0" standalone="no"?>
<!DOCTYPE svg PUBLIC "-//W3C//DTD SVG 20010904//EN"
 "http://www.w3.org/TR/2001/REC-SVG-20010904/DTD/svg10.dtd">
<svg version="1.0" xmlns="http://www.w3.org/2000/svg"
 width="835.000000pt" height="1024.000000pt" viewBox="0 0 835.000000 1024.000000"
 preserveAspectRatio="xMidYMid meet">

<g transform="translate(0.000000,1024.000000) scale(0.100000,-0.100000)"
fill="#000000" stroke="none">
<path d="M6530 10221 c-418 -89 -748 -447 -983 -1067 -42 -110 -137 -421 -137
-448 0 -6 -5 -28 -10 -48 l-11 -37 -78 62 c-149 118 -315 204 -477 249 -67 19
-104 22 -249 22 -202 -1 -272 -16 -430 -93 -181 -89 -306 -216 -402 -409 -49
-99 -57 -123 -60 -185 -4 -68 -2 -75 29 -127 25 -41 45 -61 87 -82 l53 -28
362 0 361 0 260 -351 c143 -193 263 -355 266 -361 5 -7 59 27 141 87 447 331
438 325 473 325 34 0 34 0 37 -52 2 -39 7 -53 18 -53 11 0 16 14 18 53 l3 52
55 0 c47 0 55 3 52 18 -2 13 -15 18 -56 20 -69 4 -70 27 -4 78 26 20 46 41 44
46 -2 6 -23 37 -47 69 -25 31 -45 60 -45 63 0 3 530 6 1178 6 821 0 1189 3
1217 11 60 16 129 92 145 158 24 102 -19 210 -102 252 -78 40 -242 35 -395
-12 -36 -11 -67 -18 -69 -16 -3 3 9 56 25 118 63 240 86 448 70 655 -36 485
-299 814 -778 974 -207 69 -393 86 -561 51z m450 -59 c445 -114 726 -379 820
-775 65 -272 30 -678 -84 -981 l-25 -65 52 21 c159 64 371 94 451 64 85 -33
128 -117 107 -210 -15 -64 -45 -104 -95 -127 -40 -18 -116 -19 -2186 -19
-2074 0 -2146 1 -2186 19 -62 28 -97 80 -102 151 -4 50 1 70 31 140 50 115 92
182 166 262 111 120 251 204 416 250 68 18 105 22 245 22 151 0 173 -3 255
-28 182 -55 366 -161 497 -284 38 -36 70 -63 71 -61 2 2 18 69 36 149 39 173
119 419 190 585 169 398 413 699 677 833 187 95 426 115 664 54z"/>
<path d="M7816 10023 c-3 -4 24 -38 61 -75 l67 -68 -67 -68 c-37 -37 -67 -71
-67 -75 0 -22 39 0 95 54 l64 61 65 -68 c52 -54 68 -66 78 -56 10 10 -1 26
-55 80 l-67 67 67 67 c53 53 65 70 55 80 -10 10 -27 -2 -80 -55 l-68 -67 -64
65 c-66 66 -71 70 -84 58z"/>
<path d="M4165 10004 c-320 -47 -614 -179 -808 -364 -87 -82 -156 -175 -141
-190 7 -7 31 16 73 70 157 202 431 360 752 432 139 31 398 33 499 4 98 -28
123 -31 118 -15 -2 8 -40 25 -84 38 -64 19 -107 24 -229 26 -82 2 -163 1 -180
-1z"/>
<path d="M4198 9566 c-151 -27 -278 -78 -402 -160 -98 -65 -255 -221 -238
-238 7 -7 36 16 99 80 136 139 279 222 462 268 131 33 263 40 379 20 111 -19
112 -19 112 -2 0 34 -276 56 -412 32z"/>
<path d="M4345 9219 c-165 -15 -323 -92 -467 -228 -38 -36 -49 -61 -25 -61 7
0 31 18 52 41 22 22 67 60 100 84 145 103 258 137 449 134 88 -2 131 1 134 9
6 20 -122 31 -243 21z"/>
<path d="M6573 7893 l-142 -96 97 -143 c53 -79 101 -144 105 -144 14 0 288
191 285 198 -12 26 -190 282 -196 282 -4 0 -71 -44 -149 -97z"/>
<path d="M4450 7770 c-47 -16 -138 -46 -203 -66 l-118 -37 23 -23 c40 -40 393
-334 401 -334 4 0 7 35 7 78 0 44 3 154 7 245 7 195 18 182 -117 137z m79 -92
c-1 -40 -4 -122 -8 -181 l-6 -108 -148 124 c-82 69 -149 128 -148 133 0 6 277
100 304 103 4 1 6 -32 6 -71z"/>
<path d="M7655 7670 c-66 -55 -121 -105 -123 -110 -2 -6 3 -13 12 -16 10 -4
55 27 133 91 107 88 136 123 108 131 -5 2 -64 -41 -130 -96z"/>
<path d="M5905 7377 c-93 -31 -159 -92 -204 -187 -21 -44 -26 -70 -26 -130 0
-132 70 -242 192 -297 165 -76 359 -2 437 166 16 35 21 66 21 131 0 73 -4 93
-28 141 -32 67 -100 132 -165 162 -58 25 -171 32 -227 14z m216 -54 c129 -58
195 -208 154 -348 -23 -81 -105 -163 -189 -189 -139 -44 -286 24 -348 159 -33
72 -31 172 5 241 33 64 106 130 166 149 59 19 154 14 212 -12z"/>
<path d="M6652 6883 c-56 -269 -102 -496 -102 -505 0 -21 17 -22 110 -8 157
25 301 133 374 282 109 224 80 433 -81 590 -41 40 -170 128 -188 128 -7 0 -53
-202 -113 -487z m191 396 c66 -44 151 -139 183 -206 85 -178 4 -449 -174 -582
-80 -61 -261 -111 -255 -71 1 8 43 209 93 446 49 237 90 434 90 438 0 12 17 5
63 -25z"/>
<path d="M1960 7280 c-149 -15 -311 -75 -420 -155 -64 -47 -171 -160 -212
-225 -65 -102 -120 -227 -148 -339 l-11 -44 -32 31 c-78 75 -214 109 -328 82
-123 -29 -255 -122 -328 -231 -172 -258 -56 -603 242 -718 35 -13 109 -17 462
-21 l420 -5 3 -412 2 -413 -56 0 -56 0 4 -242 c3 -231 4 -246 27 -296 13 -29
42 -69 65 -90 26 -23 56 -67 80 -116 49 -100 142 -197 238 -246 l68 -35 0
-1059 0 -1059 22 -35 c13 -21 38 -42 64 -53 30 -14 41 -24 38 -37 -17 -81 -94
-614 -89 -622 3 -6 15 -10 26 -10 11 0 22 -6 25 -13 2 -7 -32 -121 -76 -253
-44 -131 -82 -245 -83 -253 -1 -10 175 -68 633 -211 724 -224 655 -215 647
-84 -6 102 -31 146 -151 267 -84 83 -110 117 -140 180 -21 42 -40 93 -43 113
-5 33 -4 36 14 30 81 -26 159 -44 165 -38 9 9 158 860 158 905 0 4 15 7 33 7
l33 0 18 -352 c9 -194 20 -393 23 -441 l6 -88 38 2 c21 2 40 1 43 -2 3 -2 1
-128 -4 -279 -4 -151 -7 -276 -7 -276 1 -1 303 -5 671 -9 l668 -8 -7 44 c-10
65 -61 164 -102 198 -20 16 -70 46 -112 66 -152 74 -249 162 -311 285 -49 97
-49 98 9 106 l51 7 0 86 c0 78 -11 313 -25 563 l-6 97 520 3 c507 3 520 4 547
24 15 11 37 33 48 48 21 27 21 29 21 1412 l0 1385 -25 19 -25 19 42 43 c78 81
56 149 -53 162 -43 5 -65 15 -104 45 -101 80 -269 142 -390 144 -105 1 -150
-26 -162 -98 -3 -18 -10 -20 -88 -17 -47 2 -86 5 -88 7 -2 2 9 27 23 55 19 38
23 56 16 63 -14 14 -27 1 -60 -60 -36 -67 -53 -66 -98 4 -62 96 -189 351 -228
458 -119 325 -275 550 -469 680 -87 58 -135 81 -255 121 -66 23 -96 27 -236
30 -151 4 -161 6 -185 28 -14 13 -37 31 -52 41 -35 22 -38 51 -5 40 62 -19
126 -17 172 5 30 15 57 20 78 17 89 -13 225 33 300 102 66 61 90 124 85 226
-3 72 -8 91 -45 166 -26 53 -65 110 -103 152 l-62 67 36 57 c42 70 35 78 -61
70 -53 -4 -68 -9 -81 -28 -64 -91 -397 -494 -441 -533 -17 -15 -24 -17 -34 -7
-14 14 -15 13 87 127 85 97 346 418 346 428 0 6 -135 76 -147 76 -5 0 -55 -61
-112 -136 l-104 -135 -31 58 c-67 126 -217 242 -376 291 -121 37 -319 56 -450
42z m215 -40 c224 -21 367 -79 480 -194 39 -39 85 -98 102 -131 l32 -61 -75
-96 c-40 -53 -74 -100 -74 -105 0 -5 15 -45 34 -89 32 -76 33 -81 23 -141 -7
-39 -7 -69 -1 -83 9 -20 10 -20 57 10 56 35 57 35 57 13 0 -10 9 -33 21 -52
12 -20 18 -43 15 -56 l-6 -22 -67 23 c-59 21 -88 24 -225 24 -86 0 -163 3
-172 6 -12 5 -16 20 -16 59 0 103 -63 155 -190 155 -136 0 -190 -50 -190 -176
l0 -73 -52 -26 c-115 -58 -212 -157 -265 -272 -26 -55 -53 -168 -53 -221 l0
-33 -422 3 -423 3 -68 32 c-192 91 -296 310 -243 509 34 128 140 248 275 313
70 33 83 36 166 36 79 0 96 -4 143 -28 49 -26 142 -110 142 -129 0 -4 5 -8 10
-8 6 0 10 9 10 21 0 41 41 182 79 268 131 304 370 488 679 520 107 12 106 12
217 1z m1212 -395 c74 -98 105 -169 111 -253 6 -88 -12 -143 -65 -197 -65 -67
-189 -109 -288 -97 -33 3 -52 -1 -78 -17 -66 -41 -159 -21 -197 42 -34 56 -27
86 32 134 49 40 53 41 71 26 27 -25 86 -22 108 6 23 28 24 73 3 106 -15 23
-13 26 53 107 37 46 90 116 117 155 57 84 60 84 133 -12z m-1117 -390 c41 -21
62 -66 58 -123 l-3 -47 -140 -6 c-77 -3 -148 -9 -157 -13 -16 -7 -18 -1 -18
54 0 72 19 112 64 134 41 21 158 21 196 1z m-72 -355 c2 -11 -17 -19 -75 -31
-43 -8 -86 -19 -95 -23 -14 -6 -18 -3 -18 12 0 25 4 28 71 47 66 17 113 15
117 -5z m1087 -22 c6 -5 -56 -212 -71 -239 -2 -3 -57 48 -123 115 -109 110
-118 122 -98 128 28 9 283 5 292 -4z m-1305 -35 c0 -9 -24 -40 -54 -69 -30
-29 -67 -79 -82 -111 l-29 -58 -5 -532 c-3 -292 -8 -535 -13 -539 -25 -25 -28
36 -25 547 l3 534 33 67 c22 45 52 84 93 122 63 59 79 67 79 39z m1823 -460
c46 -144 150 -679 139 -711 -2 -6 -12 -12 -22 -12 -14 0 -21 9 -25 33 -60 353
-110 590 -145 692 -19 57 -17 75 10 75 15 0 24 -17 43 -77z m-921 -205 c3 -7
-15 -51 -38 -98 -99 -197 -149 -417 -126 -552 28 -162 157 -314 352 -416 75
-39 94 -64 53 -70 -24 -4 -104 34 -173 81 -114 78 -225 210 -262 314 -57 157
-4 455 124 694 30 57 60 77 70 47z m2076 -568 c77 -26 197 -89 187 -98 -2 -3
-64 1 -137 8 l-133 13 -37 41 c-31 35 -37 38 -43 23 -5 -11 1 -29 17 -50 64
-85 87 -141 63 -151 -36 -13 -124 45 -176 118 -89 122 41 170 259 96z m-878
-130 c0 -88 -2 -160 -4 -160 -11 0 -286 154 -286 160 0 7 267 157 283 159 4 1
7 -71 7 -159z m-202 105 c2 -2 -37 -25 -87 -52 -50 -26 -91 -51 -91 -54 0 -3
18 -14 40 -24 22 -10 44 -23 49 -29 6 -7 -46 -71 -151 -185 -136 -149 -159
-178 -155 -200 4 -22 -5 -33 -59 -73 l-63 -48 -62 9 c-54 7 -78 20 -79 43 0 7
229 260 458 505 l114 123 41 -6 c23 -4 43 -8 45 -9z m478 -44 c22 -6 23 -8 10
-27 -14 -19 -18 -20 -128 -8 -62 7 -114 13 -115 13 -2 1 -3 11 -3 22 0 21 2
21 105 14 59 -4 117 -10 131 -14z m306 -48 c12 -12 20 -24 17 -27 -4 -4 -270
22 -275 27 -2 2 3 12 10 23 13 19 20 19 120 9 88 -8 109 -14 128 -32z m493
-28 c179 -17 206 -26 185 -65 -5 -10 -132 -151 -281 -314 -261 -284 -273 -296
-308 -296 -20 0 -243 20 -496 45 -253 25 -463 45 -467 45 -6 0 16 87 24 96 2
2 188 -14 414 -37 225 -22 417 -38 426 -37 9 2 57 46 105 99 48 53 143 156
211 227 89 96 122 138 122 156 0 30 -25 46 -73 46 -63 0 -94 11 -106 37 -12
25 -12 25 31 19 24 -3 120 -13 213 -21z m-1257 -166 c40 -45 50 -79 23 -79
-16 0 -103 108 -96 120 12 19 30 9 73 -41z m342 -134 l28 -70 -51 -23 c-96
-43 -99 -43 -126 32 -14 35 -24 68 -24 73 1 9 124 63 137 60 5 -2 21 -34 36
-72z m1078 -1341 c-3 -1263 -4 -1330 -21 -1356 -40 -58 -39 -58 -585 -58
l-500 0 -6 83 c-3 45 -13 208 -21 362 -39 713 -118 1732 -141 1807 -4 12 7 22
39 36 25 11 71 37 103 58 l59 37 195 -17 c287 -27 326 -29 352 -23 13 4 99 89
198 198 l175 191 47 -5 c37 -5 52 -2 70 13 13 10 26 15 31 11 4 -4 6 -605 5
-1337z m-1427 1306 c10 -6 19 -17 19 -24 0 -19 -40 -52 -89 -75 l-45 -19 -33
-119 c-38 -136 -39 -146 -16 -141 9 2 23 22 31 46 9 27 19 42 30 42 50 -2 373
-37 377 -42 15 -14 -186 -109 -350 -165 -166 -57 -407 -103 -537 -103 l-65 0
-6 58 c-4 31 -9 122 -13 201 l-7 145 28 -22 c17 -14 42 -22 65 -22 28 0 41 -6
53 -22 l15 -23 55 52 c98 93 277 195 397 227 68 18 67 18 91 6z m513 -79 c8
-13 -51 -91 -69 -91 -23 0 -18 27 11 66 26 33 47 43 58 25z m-1204 -30 c0 -6
-4 -13 -10 -16 -5 -3 -10 1 -10 9 0 9 5 16 10 16 6 0 10 -4 10 -9z m-961 -448
l164 -5 -7 -77 c-22 -242 -254 -1934 -281 -2048 -8 -32 -32 -28 -71 11 l-34
34 0 1052 0 1052 33 -6 c17 -4 106 -10 196 -13z m1184 -110 c-54 -689 -154
-1747 -166 -1760 -4 -3 -13 -3 -22 1 -12 4 -15 14 -11 33 12 60 131 1357 151
1648 8 109 10 115 32 115 15 0 18 -7 16 -37z m-936 -1303 c197 -34 254 -54
282 -100 30 -50 32 -104 11 -264 -27 -211 -60 -272 -164 -306 -52 -17 -186 -8
-303 20 -77 18 -93 25 -93 41 0 24 7 23 100 -1 115 -30 239 -37 295 -16 82 32
105 85 130 303 27 232 22 236 -325 295 -109 19 -135 26 -138 41 -5 23 -1 22
205 -13z m762 -667 c1 -82 1 -83 -24 -83 -30 0 -29 -11 -8 130 16 103 18 111
25 75 4 -22 7 -77 7 -122z m-771 -882 l317 -86 17 -50 c9 -28 17 -55 17 -62 1
-7 -29 -16 -74 -24 -54 -8 -75 -16 -75 -26 0 -11 7 -13 23 -9 13 3 49 8 81 12
44 5 60 4 67 -7 18 -28 8 -37 -48 -44 -80 -9 -103 -15 -103 -27 0 -10 90 -5
158 8 23 5 30 0 46 -28 11 -18 63 -76 116 -129 56 -55 102 -109 108 -128 9
-26 9 -32 -1 -28 -27 10 -1064 350 -1095 359 -19 5 -32 15 -29 21 2 7 28 87
57 179 52 162 54 167 77 162 13 -4 167 -45 341 -93z m1636 -45 c9 -23 32 -69
51 -101 19 -31 35 -59 35 -62 0 -2 -29 -17 -64 -33 -36 -16 -67 -34 -71 -40
-11 -18 24 -11 92 20 50 23 69 27 79 19 26 -22 14 -36 -56 -67 -38 -17 -70
-36 -70 -41 0 -17 17 -13 97 24 l75 35 46 -36 c25 -19 88 -56 139 -81 51 -26
103 -57 115 -70 l21 -23 -591 0 -592 0 1 148 c1 81 4 172 7 202 l7 55 310 46
c171 26 320 47 331 48 16 1 25 -9 38 -43z m-1076 -582 l112 -36 0 -44 c0 -25
-5 -44 -11 -44 -6 0 -266 79 -577 175 -312 97 -575 178 -586 181 -19 6 -19 30
3 86 l10 26 468 -154 c257 -85 519 -170 581 -190z m1606 56 c32 -80 90 -74
-606 -65 -343 4 -624 8 -626 9 -1 2 1 24 4 49 l7 47 602 0 603 0 16 -40z"/>
<path d="M3310 6757 c0 -8 9 -22 20 -32 11 -10 34 -40 51 -66 30 -48 49 -62
49 -36 0 25 -92 147 -112 147 -4 0 -8 -6 -8 -13z"/>
<path d="M3194 6675 c-4 -9 -2 -21 4 -27 15 -15 44 -1 40 19 -4 23 -36 29 -44
8z"/>
<path d="M2935 6430 c-25 -10 -50 -38 -42 -47 4 -3 18 2 33 12 21 13 40 16 81
12 54 -6 69 4 34 23 -23 12 -77 12 -106 0z"/>
<path d="M4848 7071 c-87 -42 -158 -80 -158 -86 0 -21 145 -314 156 -315 6 0
81 34 167 75 l155 76 -75 157 c-41 86 -78 160 -82 163 -3 3 -77 -28 -163 -70z
m206 -106 c32 -69 57 -126 55 -128 -43 -25 -242 -116 -247 -113 -4 2 -34 59
-67 127 -43 87 -56 123 -47 127 7 2 61 28 120 57 59 30 112 54 117 54 6 1 37
-55 69 -124z"/>
<path d="M8086 7072 c-6 -10 8 -32 78 -129 36 -50 58 -64 70 -45 7 11 -111
176 -129 180 -7 2 -16 -1 -19 -6z"/>
<path d="M6230 6675 c0 -20 56 -131 71 -140 6 -4 15 -3 21 3 13 13 -57 152
-77 152 -8 0 -15 -7 -15 -15z"/>
<path d="M4657 6301 c-75 -90 -85 -106 -63 -114 10 -4 39 23 90 83 42 48 76
93 76 99 0 31 -42 2 -103 -68z"/>
<path d="M5208 6162 c26 -327 52 -615 54 -617 4 -4 472 422 475 432 2 5 -104
50 -235 102 -130 52 -251 100 -267 107 l-30 12 3 -36z"/>
<path d="M4825 5738 c-3 -7 -2 -52 2 -98 6 -65 11 -85 23 -85 18 0 25 69 13
140 -8 47 -28 70 -38 43z"/>
<path d="M4346 5575 c-58 -54 -19 -155 61 -155 46 0 93 46 93 90 0 22 -9 41
-29 61 -38 38 -87 39 -125 4z m98 -31 c32 -31 8 -84 -38 -84 -29 0 -46 18 -46
50 0 14 5 31 12 38 17 17 54 15 72 -4z"/>
<path d="M857 5261 c-115 -82 -208 -153 -208 -157 0 -9 470 -198 477 -192 6 7
-49 498 -56 498 -3 0 -99 -67 -213 -149z"/>
<path d="M1370 5378 c0 -7 22 -62 48 -123 31 -72 53 -111 65 -113 25 -5 22 11
-30 135 -35 85 -51 113 -65 113 -10 0 -18 -6 -18 -12z"/>
<path d="M4766 5376 c-77 -29 -146 -125 -146 -205 0 -80 59 -168 135 -202 112
-51 254 12 294 130 31 94 -9 204 -92 255 -57 35 -132 43 -191 22z m141 -41
c48 -20 71 -41 95 -89 44 -86 4 -196 -86 -237 -54 -24 -100 -24 -154 2 -131
64 -131 253 0 318 51 25 95 27 145 6z"/>
<path d="M105 4741 c-48 -22 -69 -44 -90 -94 -31 -74 -9 -156 55 -210 83 -70
228 -39 275 60 75 156 -83 316 -240 244z m160 -45 c58 -38 77 -133 38 -194
-40 -64 -146 -83 -203 -36 -83 70 -77 179 13 235 38 24 111 22 152 -5z"/>
<path d="M5701 4078 c-63 -67 -110 -123 -105 -125 34 -9 367 -63 371 -60 4 4
-144 308 -150 307 -1 -1 -53 -56 -116 -122z"/>
<path d="M6171 4006 c-7 -9 9 -34 61 -94 39 -45 75 -82 80 -82 29 0 14 37 -44
104 -69 82 -82 91 -97 72z"/>
<path d="M717 3853 c-13 -13 -8 -150 6 -162 22 -18 27 -2 27 86 0 62 -3 83
-13 83 -8 0 -17 -3 -20 -7z"/>
</g>
</svg>
