<?xml version="1.0" standalone="no"?>
<!DOCTYPE svg PUBLIC "-//W3C//DTD SVG 20010904//EN"
 "http://www.w3.org/TR/2001/REC-SVG-20010904/DTD/svg10.dtd">
<svg version="1.0" xmlns="http://www.w3.org/2000/svg"
 width="512.000000pt" height="512.000000pt" viewBox="0 0 512.000000 512.000000"
 preserveAspectRatio="xMidYMid meet">

<g transform="translate(0.000000,512.000000) scale(0.100000,-0.100000)"
fill="#000000" stroke="none">
<path d="M2321 5110 c-868 -84 -1644 -610 -2037 -1382 -139 -273 -221 -536
-266 -853 -20 -140 -17 -504 6 -660 39 -278 121 -541 247 -794 249 -502 647
-900 1150 -1150 815 -406 1779 -350 2539 147 297 194 579 482 771 788 74 116
184 342 234 478 51 138 110 376 131 531 23 157 26 521 6 660 -59 415 -191 769
-410 1099 -92 140 -185 254 -315 385 -399 403 -895 653 -1462 737 -122 18
-466 26 -594 14z m876 -1515 c41 -14 100 -42 130 -63 110 -73 95 -69 168 -50
36 10 107 37 157 62 91 43 118 46 118 11 0 -24 -69 -151 -105 -193 -20 -23
-32 -42 -26 -42 6 0 47 14 93 30 71 26 84 28 96 16 22 -21 -12 -71 -137 -199
l-105 -107 -8 -120 c-26 -397 -181 -744 -453 -1015 -233 -234 -503 -367 -843
-416 -135 -19 -423 -7 -552 24 -132 32 -252 76 -354 130 -88 46 -107 67 -90
95 9 14 32 18 131 24 185 10 366 63 493 143 l45 28 -60 16 c-92 26 -163 69
-240 146 -74 74 -139 185 -133 228 3 20 7 22 63 19 66 -4 66 -4 -19 53 -98 66
-178 181 -211 306 -18 66 -20 166 -3 171 6 2 38 -7 71 -20 32 -13 61 -22 63
-19 2 2 -10 21 -27 43 -115 144 -148 344 -86 523 28 80 54 116 78 105 8 -3 36
-31 63 -62 203 -233 514 -405 827 -458 58 -10 113 -15 122 -11 14 5 17 20 17
89 0 129 33 227 109 328 45 61 134 133 197 161 124 56 287 65 411 24z"/>
</g>
</svg>
