<?xml version="1.0" standalone="no"?>
<!DOCTYPE svg PUBLIC "-//W3C//DTD SVG 20010904//EN"
 "http://www.w3.org/TR/2001/REC-SVG-20010904/DTD/svg10.dtd">
<svg version="1.0" xmlns="http://www.w3.org/2000/svg"
 width="512.000000pt" height="512.000000pt" viewBox="0 0 512.000000 512.000000"
 preserveAspectRatio="xMidYMid meet">

<g transform="translate(0.000000,512.000000) scale(0.100000,-0.100000)"
fill="#000000" stroke="none">
<path d="M2321 5110 c-868 -84 -1644 -610 -2037 -1382 -139 -273 -221 -536
-266 -853 -20 -140 -17 -504 6 -660 39 -278 121 -541 247 -794 249 -502 647
-900 1150 -1150 815 -406 1779 -350 2539 147 297 194 579 482 771 788 74 116
184 342 234 478 51 138 110 376 131 531 23 157 26 521 6 660 -59 415 -191 769
-410 1099 -92 140 -185 254 -315 385 -399 403 -895 653 -1462 737 -122 18
-466 26 -594 14z m1469 -2047 l0 -778 -337 -337 -338 -338 -250 0 -250 0 -165
-165 -165 -165 -167 0 -168 0 0 165 0 165 -307 2 -308 3 -3 887 -2 886 58 154
c33 84 71 186 86 226 l28 72 1144 0 1144 0 0 -777z"/>
<path d="M1722 2813 l3 -808 253 -3 252 -2 0 -163 0 -162 163 163 162 162 307
0 307 0 195 191 196 191 0 619 0 619 -920 0 -920 0 2 -807z m838 22 l0 -335
-110 0 -110 0 0 335 0 335 110 0 110 0 0 -335z m610 0 l0 -335 -110 0 -110 0
0 335 0 335 110 0 110 0 0 -335z"/>
</g>
</svg>
