<?xml version="1.0" standalone="no"?>
<!DOCTYPE svg PUBLIC "-//W3C//DTD SVG 20010904//EN"
 "http://www.w3.org/TR/2001/REC-SVG-20010904/DTD/svg10.dtd">
<svg version="1.0" xmlns="http://www.w3.org/2000/svg"
 width="512.000000pt" height="512.000000pt" viewBox="0 0 512.000000 512.000000"
 preserveAspectRatio="xMidYMid meet">

<g transform="translate(0.000000,512.000000) scale(0.100000,-0.100000)"
fill="#000000" stroke="none">
<path d="M2321 5110 c-1340 -130 -2361 -1283 -2318 -2620 13 -389 97 -726 268
-1069 249 -502 647 -900 1150 -1150 815 -406 1779 -350 2539 147 297 194 579
482 771 788 74 116 184 342 234 478 51 138 110 376 131 531 23 157 26 521 6
660 -59 415 -191 769 -410 1099 -92 140 -185 254 -315 385 -399 403 -895 653
-1462 737 -122 18 -466 26 -594 14z m509 -1299 c437 -101 781 -405 928 -821
53 -152 67 -237 66 -420 0 -141 -4 -181 -26 -276 -117 -501 -500 -871 -1006
-971 -59 -11 -136 -17 -237 -17 -179 0 -302 23 -462 86 l-102 41 -323 -77
c-178 -42 -329 -76 -335 -76 -7 0 -19 10 -27 23 -13 20 -8 53 54 354 l69 332
-40 97 c-67 160 -93 290 -93 479 -1 229 34 378 135 581 169 339 503 594 874
667 125 25 131 26 290 22 102 -3 177 -10 235 -24z"/>
<path d="M2383 3546 c-324 -62 -611 -290 -733 -583 -61 -147 -74 -212 -74
-393 -1 -196 15 -272 94 -437 l48 -101 -39 -188 c-22 -104 -38 -193 -37 -199
2 -7 70 4 195 34 l192 44 98 -46 c161 -75 239 -92 433 -92 141 0 177 4 250 23
291 79 523 274 652 548 67 145 82 215 82 409 1 148 -2 181 -22 255 -97 353
-363 616 -720 712 -99 26 -316 33 -419 14z m-194 -382 c23 -17 65 -99 122
-241 33 -82 31 -93 -25 -168 -50 -65 -49 -102 5 -172 99 -127 356 -333 416
-333 34 0 60 16 120 71 28 27 60 49 70 49 10 0 81 -18 158 -40 108 -31 145
-45 163 -65 35 -41 29 -83 -21 -152 -91 -123 -157 -158 -302 -158 -119 0 -207
24 -332 90 -117 62 -203 126 -322 240 -215 206 -321 400 -321 585 0 102 61
212 154 281 45 33 81 37 115 13z"/>
</g>
</svg>
